<?xml version="1.0" encoding="UTF-8"?>
<svg xmlns="http://www.w3.org/2000/svg" fill="none" height="24" viewBox="0 0 25 24" width="25">
<g id="Group 25">
<path clip-rule="evenodd" d="M6.57922 3.80617L0.655181 14.1622C-1.78672 18.431 3.07787 23.3158 7.33545 20.5763C10.4864 18.5488 14.5136 18.5488 17.6645 20.5763C21.9221 23.3158 26.7867 18.431 24.3448 14.1622L18.4208 3.80618C15.7922 -0.788896 9.20778 -0.788914 6.57922 3.80617ZM7.98876 4.61248C9.99375 1.10748 15.0062 1.10749 17.0112 4.61249L22.9353 14.9685C24.5727 17.831 21.3047 20.9875 18.5432 19.2107C14.8571 16.8389 10.1429 16.8389 6.45677 19.2107C3.69531 20.9875 0.427274 17.831 2.06472 14.9685L7.98876 4.61248Z" fill="black" fill-rule="evenodd" id="icon (Stroke)"/>
<path clip-rule="evenodd" d="M6.57922 20.1933L0.655181 9.83732C-1.78672 5.56855 3.07787 0.683735 7.33545 3.42324C10.4864 5.45069 14.5136 5.4507 17.6645 3.42324C21.9221 0.683754 26.7867 5.56852 24.3448 9.83732L18.4208 20.1933C15.7922 24.7884 9.20778 24.7884 6.57922 20.1933ZM7.98876 19.387C9.99375 22.892 15.0062 22.892 17.0112 19.387L22.9353 9.031C24.5727 6.16852 21.3047 3.01201 18.5432 4.78884C14.8571 7.16065 10.1429 7.16065 6.45677 4.78884C3.69531 3.012 0.427274 6.16853 2.06472 9.03101L7.98876 19.387Z" fill="black" fill-rule="evenodd" id="icon (Stroke)_2"/>
</g>
</svg>