<?xml version="1.0" encoding="UTF-8"?>
<svg xmlns="http://www.w3.org/2000/svg" fill="none" height="24" viewBox="0 0 160 24" width="160">
<path clip-rule="evenodd" d="M6.57922 3.80629L0.655181 14.1623C-1.78672 18.4311 3.07787 23.3159 7.33545 20.5764C10.4864 18.5489 14.5136 18.5489 17.6645 20.5764C21.9221 23.3159 26.7867 18.4311 24.3448 14.1623L18.4208 3.8063C15.7922 -0.788774 9.20778 -0.788792 6.57922 3.80629ZM7.98876 4.6126C9.99375 1.1076 15.0062 1.10761 17.0112 4.61261L22.9353 14.9686C24.5727 17.8311 21.3047 20.9876 18.5432 19.2108C14.8571 16.839 10.1429 16.839 6.45677 19.2108C3.69531 20.9876 0.427274 17.8311 2.06472 14.9686L7.98876 4.6126Z" fill="white" fill-rule="evenodd"/>
<path clip-rule="evenodd" d="M6.57922 20.1937L0.655181 9.83769C-1.78672 5.56892 3.07787 0.684101 7.33545 3.42361C10.4864 5.45106 14.5136 5.45106 17.6645 3.42361C21.9221 0.68412 26.7867 5.56889 24.3448 9.83768L18.4208 20.1937C15.7922 24.7888 9.20778 24.7888 6.57922 20.1937ZM7.98876 19.3874C9.99375 22.8924 15.0062 22.8924 17.0112 19.3874L22.9353 9.03137C24.5727 6.16889 21.3047 3.01237 18.5432 4.78921C14.8571 7.16102 10.1429 7.16102 6.45677 4.78921C3.69531 3.01237 0.427274 6.1689 2.06472 9.03138L7.98876 19.3874Z" fill="white" fill-rule="evenodd"/>
<path d="M32.5771 19.1484C31.9556 19.1484 31.5381 18.7681 31.5381 18.2021C31.5381 18.0444 31.5752 17.8403 31.668 17.5898L35.7407 6.5498C36.0098 5.80762 36.4644 5.46436 37.1973 5.46436C37.9209 5.46436 38.3662 5.79834 38.6445 6.54053L42.7266 17.5898C42.8193 17.8496 42.8564 18.0259 42.8564 18.2021C42.8564 18.7495 42.4204 19.1484 41.8174 19.1484C41.2607 19.1484 40.9546 18.8887 40.769 18.2949L39.7485 15.4097H34.6274L33.6162 18.2856C33.4214 18.8887 33.1152 19.1484 32.5771 19.1484ZM35.1562 13.7119H39.2197L37.2065 7.83936H37.1509L35.1562 13.7119ZM47.6766 19.1484C46.9437 19.1484 46.5262 18.833 46.2479 18.0723L42.0267 6.98584C41.9525 6.77246 41.9154 6.58691 41.9154 6.40137C41.9154 5.84473 42.3421 5.46436 42.973 5.46436C43.5018 5.46436 43.8265 5.70557 44.0028 6.24365L47.6673 16.6621H47.723L51.3875 6.23438C51.5731 5.68701 51.8607 5.46436 52.3895 5.46436C53.0111 5.46436 53.4471 5.854 53.4471 6.39209C53.4471 6.56836 53.41 6.75391 53.3358 6.95801L49.1053 18.0815C48.8177 18.8423 48.4095 19.1484 47.6766 19.1484ZM53.5543 19.1484C52.9328 19.1484 52.5153 18.7681 52.5153 18.2021C52.5153 18.0444 52.5524 17.8403 52.6452 17.5898L56.7179 6.5498C56.987 5.80762 57.4415 5.46436 58.1745 5.46436C58.8981 5.46436 59.3434 5.79834 59.6217 6.54053L63.7038 17.5898C63.7965 17.8496 63.8336 18.0259 63.8336 18.2021C63.8336 18.7495 63.3976 19.1484 62.7946 19.1484C62.2379 19.1484 61.9318 18.8887 61.7462 18.2949L60.7257 15.4097H55.6046L54.5934 18.2856C54.3986 18.8887 54.0924 19.1484 53.5543 19.1484ZM56.1334 13.7119H60.1969L58.1837 7.83936H58.1281L56.1334 13.7119ZM67.559 19.1484C66.9096 19.1484 66.52 18.7402 66.52 18.0723V7.4126H63.2358C62.6606 7.4126 62.271 7.06006 62.271 6.5127C62.271 5.96533 62.6606 5.61279 63.2358 5.61279H71.873C72.4482 5.61279 72.8379 5.96533 72.8379 6.5127C72.8379 7.06006 72.4482 7.4126 71.873 7.4126H68.5981V18.0723C68.5981 18.7402 68.1992 19.1484 67.559 19.1484ZM79.2351 19.2227C75.8767 19.2227 73.8172 17.1816 73.8172 14.2964V6.54053C73.8172 5.87256 74.2068 5.46436 74.8562 5.46436C75.4964 5.46436 75.8953 5.87256 75.8953 6.54053V14.1201C75.8953 16.0312 77.1013 17.3765 79.2351 17.3765C81.3689 17.3765 82.5843 16.0312 82.5843 14.1201V6.54053C82.5843 5.87256 82.9739 5.46436 83.6233 5.46436C84.2635 5.46436 84.6531 5.87256 84.6531 6.54053V14.2964C84.6531 17.1816 82.5935 19.2227 79.2351 19.2227ZM87.5899 19.1763C86.9498 19.1763 86.5509 18.7681 86.5509 18.1001V6.68896C86.5509 6.021 86.9405 5.61279 87.5899 5.61279H91.7369C94.4923 5.61279 96.2086 7.2085 96.2086 9.7041C96.2086 11.4946 95.2623 12.9419 93.6573 13.5078L95.921 17.5063C96.088 17.7939 96.1437 17.9888 96.1437 18.2207C96.1437 18.7681 95.6891 19.1763 95.086 19.1763C94.6036 19.1763 94.3531 19 94.047 18.4526L91.5328 13.8511H88.629V18.1001C88.629 18.7681 88.2208 19.1763 87.5899 19.1763ZM88.629 12.1719H91.5421C93.1471 12.1719 94.0655 11.2905 94.0655 9.75977C94.0655 8.26611 93.0914 7.35693 91.4864 7.35693H88.629V12.1719ZM98.663 19.1484C98.0322 19.1484 97.6518 18.7495 97.6518 18.0908V6.58691C97.6518 5.90039 98.0785 5.46436 98.7651 5.46436C99.2568 5.46436 99.5444 5.63135 99.8876 6.11377L106.475 15.4839H106.549V6.52197C106.549 5.86328 106.938 5.46436 107.56 5.46436C108.191 5.46436 108.571 5.86328 108.571 6.52197V18.0723C108.571 18.7495 108.172 19.1484 107.476 19.1484C106.966 19.1484 106.697 18.9907 106.354 18.5083L99.7577 9.13818H99.6742V18.0908C99.6742 18.7495 99.2939 19.1484 98.663 19.1484Z" fill="#F7F8FA"/>
<rect fill="#F259FF" fill-opacity="0.1" height="24" rx="12" width="44" x="116"/>
<path d="M125.853 17C125.203 17 124.82 16.6035 124.82 15.9199V8.0791C124.82 7.39551 125.203 6.99902 125.853 6.99902C126.502 6.99902 126.885 7.39551 126.885 8.0791V15.291H130.385C130.945 15.291 131.321 15.6123 131.321 16.1455C131.321 16.6787 130.952 17 130.385 17H125.853ZM133.034 17.1299C132.385 17.1299 132.002 16.7334 132.002 16.0566V8.0791C132.002 7.39551 132.385 6.99902 133.034 6.99902C133.684 6.99902 134.066 7.39551 134.066 8.0791V16.0566C134.066 16.7334 133.684 17.1299 133.034 17.1299ZM139.211 17.1299C138.404 17.1299 137.926 16.7744 137.625 15.9336L134.877 8.55762C134.808 8.36621 134.774 8.1748 134.774 7.97656C134.774 7.39551 135.212 6.99902 135.861 6.99902C136.415 6.99902 136.743 7.25195 136.914 7.8125L139.224 14.874H139.272L141.576 7.79199C141.747 7.23828 142.055 6.99902 142.595 6.99902C143.223 6.99902 143.654 7.38867 143.654 7.94922C143.654 8.13379 143.62 8.31836 143.552 8.50293L140.79 15.9404C140.489 16.7744 140.011 17.1299 139.211 17.1299ZM145.401 17C144.752 17 144.369 16.6035 144.369 15.9199V8.20898C144.369 7.53223 144.752 7.13574 145.401 7.13574H150.091C150.658 7.13574 151.027 7.45703 151.027 7.99023C151.027 8.52344 150.651 8.84473 150.091 8.84473H146.433V11.2168H149.913C150.426 11.2168 150.774 11.5176 150.774 12.0098C150.774 12.502 150.432 12.8027 149.913 12.8027H146.433V15.291H150.091C150.651 15.291 151.027 15.6123 151.027 16.1455C151.027 16.6787 150.658 17 150.091 17H145.401Z" fill="#C059FF"/>
</svg>
